<?xml version="1.0" encoding="utf-8"?>
<!-- Generator: Adobe Illustrator 16.0.0, SVG Export Plug-In . SVG Version: 6.00 Build 0)  -->
<!DOCTYPE svg PUBLIC "-//W3C//DTD SVG 1.1//EN" "http://www.w3.org/Graphics/SVG/1.1/DTD/svg11.dtd">
<svg version="1.1" id="Layer_1" xmlns="http://www.w3.org/2000/svg" xmlns:xlink="http://www.w3.org/1999/xlink" x="0px" y="0px"
	 width="1024px" height="355.482px" viewBox="0 0 1024 355.482" enable-background="new 0 0 1024 355.482" xml:space="preserve">
<path fill="#F15959" d="M141.993,301.398c0,0-70.148-6.484-97.362-54.058c-27.215-47.575-11.855-146.608-11.855-146.608
	S220.169,164.477,141.993,301.398z"/>
<path opacity="0.8" fill="#4FC0AB" d="M147.592,301.398c0,0-45.222-68.849-21.582-128.413
	c23.645-59.566,125.368-117.74,125.368-117.74S329.753,273.019,147.592,301.398z"/>
<g>
	<path fill="#FFFFFF" d="M74.227,182.488c0,0,0.679,1.043,1.951,3c1.265,1.961,3.151,4.819,5.482,8.499
		c4.688,7.343,11.337,17.863,19.131,30.602c3.896,6.37,8.117,13.272,12.475,20.637c4.364,7.362,8.983,15.118,13.582,23.252
		c2.307,4.064,4.638,8.205,6.952,12.43c2.309,4.23,4.641,8.515,6.806,12.984c1.08,2.263,2.154,4.449,3.052,7.073l0.164,0.514
		l0.148,0.589l0.054,0.217c0.03,0.133,0.003-0.001-0.008-0.025c-0.017-0.043-0.029-0.093-0.121-0.255
		c-0.032-0.051-0.121-0.189-0.209-0.279c-0.125-0.141-0.262-0.265-0.504-0.409c-0.465-0.297-1.187-0.344-1.543-0.235
		c-0.395,0.104-0.509,0.196-0.618,0.264c-0.163,0.117-0.14,0.118-0.121,0.091c0.061-0.07,0.195-0.256,0.32-0.457
		c0.525-0.844,1.058-1.94,1.554-3.014c1.988-4.38,3.766-9.038,5.542-13.656c3.529-9.297,7.059-18.594,10.533-27.746
		c3.455-9.173,7.021-18.145,10.519-26.811c3.488-8.67,7.029-16.987,10.526-24.816c3.475-7.839,6.952-15.17,10.353-21.846
		c6.748-13.373,13.323-24.074,18.725-30.974c2.672-3.471,5.07-5.957,6.78-7.551c1.718-1.592,2.733-2.318,2.733-2.318
		s-0.958,0.803-2.538,2.512c-1.585,1.704-3.724,4.367-6.162,7.949c-2.436,3.584-5.128,8.112-7.99,13.428
		c-2.847,5.325-5.836,11.453-8.938,18.212c-3.08,6.771-6.251,14.184-9.505,22.068c-3.234,7.893-6.508,16.275-9.867,24.961
		c-3.351,8.689-6.663,17.729-10.108,26.891c-3.434,9.168-6.83,18.516-10.409,27.832c-1.825,4.656-3.619,9.293-5.754,13.929
		c-0.555,1.169-1.096,2.31-1.88,3.565c-0.207,0.319-0.423,0.646-0.766,1.043c-0.185,0.204-0.379,0.428-0.796,0.722
		c-0.237,0.15-0.486,0.325-1.033,0.461c-0.506,0.146-1.391,0.083-1.989-0.293c-0.31-0.182-0.502-0.36-0.683-0.555
		c-0.134-0.152-0.275-0.349-0.342-0.468c-0.174-0.294-0.242-0.488-0.309-0.677c-0.061-0.171-0.128-0.454-0.131-0.472l-0.055-0.232
		l-0.075-0.31l-0.116-0.367c-0.683-2.051-1.741-4.311-2.765-6.467c-4.213-8.709-8.789-17.206-13.234-25.379
		c-4.496-8.164-8.842-16.055-12.963-23.538c-4.159-7.469-8.092-14.529-11.722-21.048c-7.254-13.046-13.3-23.918-17.532-31.528
		C76.625,186.85,74.227,182.488,74.227,182.488z"/>
</g>
<text transform="matrix(1 0 0 1 296.1035 225.1177)"><tspan x="0" y="0" font-family="'BaronNeue'" font-size="109.4727">FIDDLE</tspan><tspan x="365.961" y="0" fill="#50C0AB" font-family="'BaronNeue'" font-size="109.4727">SALAD</tspan></text>
</svg>
